<svg width="512" height="512" viewBox="0 0 512 512" fill="none" xmlns="http://www.w3.org/2000/svg">
<rect width="512" height="512" rx="256" fill="#202125"/>
<path d="M263.52 182.855V259.418L329.145 298.383L318.207 316.84L241.645 270.355V182.855H263.52ZM173.285 338.715C196.527 361.501 224.099 372.895 256 372.895C287.901 372.895 315.245 361.501 338.031 338.715C361.273 315.473 372.895 287.901 372.895 256C372.895 224.099 361.273 196.755 338.031 173.969C315.245 150.727 287.901 139.105 256 139.105C224.099 139.105 196.527 150.727 173.285 173.969C150.499 196.755 139.105 224.099 139.105 256C139.105 287.901 150.499 315.473 173.285 338.715ZM152.777 153.461C181.488 124.75 215.896 110.395 256 110.395C296.104 110.395 330.284 124.75 358.539 153.461C387.25 181.716 401.605 215.896 401.605 256C401.605 296.104 387.25 330.512 358.539 359.223C330.284 387.478 296.104 401.605 256 401.605C215.896 401.605 181.488 387.478 152.777 359.223C124.522 330.512 110.395 296.104 110.395 256C110.395 215.896 124.522 181.716 152.777 153.461Z" fill="white"/>
<rect x="296" y="65" width="150" height="150" rx="75" fill="#202125"/>
<path d="M414.652 146.152H377.152V183.652H364.848V146.152H327.348V133.848H364.848V96.3477H377.152V133.848H414.652V146.152Z" fill="white"/>
</svg>
